<!--?xml version="1.0" encoding="utf-8"?-->
<!-- Generator: Adobe Illustrator 18.1.1, SVG Export Plug-In . SVG Version: 6.00 Build 0)  -->

<svg version="1.1" id="_x32_" xmlns="http://www.w3.org/2000/svg" xmlns:xlink="http://www.w3.org/1999/xlink" x="0px" y="0px" viewBox="0 0 512 512" style="width: 256px; height: 256px; opacity: 1;" xml:space="preserve">
<style type="text/css">
	.st0{fill:#4B4B4B;}
</style>
<g>
	<path class="st0" d="M238.266,34.104c-11.51-15.947-33.948-19.543-49.87-8.066L60.144,118.6
		c-15.97,11.511-19.566,33.925-8.078,49.872L275.344,477.88c11.487,15.923,33.925,19.589,49.872,8.078l128.251-92.552
		c15.947-11.487,19.541-33.972,8.078-49.872L238.266,34.104z M372.004,415.635c-6.584,4.762-15.806,3.268-20.57-3.339
		c-4.74-6.584-3.268-15.795,3.316-20.559c6.56-4.739,15.83-3.268,20.592,3.316C380.107,401.637,378.589,410.895,372.004,415.635z
		 M269.039,430.974L85.034,176.013L235.045,67.772l183.982,254.983L269.039,430.974z" style="fill: rgb(75, 75, 75);"></path>
	<path class="st0" d="M444.658,62.04l17.727-24.2l-89.424-3.958l34.415,79.069l17.47-23.862c1.834,1.646,3.818,3.116,5.551,4.856
		c30.003,29.991,48.471,71.27,48.494,117.021H512C512,151.638,485.926,98.439,444.658,62.04z" style="fill: rgb(75, 75, 75);"></path>
	<path class="st0" d="M87.14,411.561c-1.827-1.636-3.811-3.106-5.538-4.845c-30.003-30.003-48.495-71.282-48.495-117.033H0
		c0,59.34,26.079,112.55,67.33,148.938l-17.715,24.2l89.422,3.946l-34.438-79.057L87.14,411.561z" style="fill: rgb(75, 75, 75);"></path>
</g>
</svg>
